<?xml version="1.0" standalone="no"?>
<!DOCTYPE svg PUBLIC "-//W3C//DTD SVG 20010904//EN"
 "http://www.w3.org/TR/2001/REC-SVG-20010904/DTD/svg10.dtd">
<svg version="1.0" xmlns="http://www.w3.org/2000/svg"
 width="535.000000pt" height="535.000000pt" viewBox="0 0 535.000000 535.000000"
 preserveAspectRatio="xMidYMid meet">
<metadata>
Created by potrace 1.11, written by Peter Selinger 2001-2013
</metadata>
<g transform="translate(0.000000,535.000000) scale(0.100000,-0.100000)"
fill="#000000" stroke="none">
<path d="M1065 4389 c-33 -4 -84 -6 -114 -3 -50 4 -57 1 -100 -33 -56 -45 -60
-51 -56 -75 3 -12 -6 -23 -24 -32 -57 -30 -72 -75 -43 -134 13 -27 17 -48 12
-80 -4 -24 -2 -46 3 -49 5 -3 4 -10 -2 -16 -6 -6 -11 -51 -11 -108 0 -115 -8
-162 -26 -155 -14 5 -24 -15 -24 -50 0 -15 6 -24 16 -24 15 0 15 -3 -1 -85 -3
-16 -17 -68 -31 -114 -17 -57 -24 -95 -19 -118 5 -29 1 -40 -33 -81 -22 -26
-65 -88 -96 -138 -57 -92 -69 -103 -141 -125 -75 -23 -153 -87 -170 -139 -3
-11 -13 -20 -20 -20 -18 0 -27 -16 -31 -53 -4 -31 -51 -81 -86 -93 -10 -3 -18
-8 -19 -12 -1 -4 -2 -18 -3 -32 -4 -40 -16 -70 -29 -70 -8 0 -9 -3 -1 -8 5 -4
21 -25 34 -47 13 -22 33 -49 44 -61 10 -12 21 -32 23 -45 2 -13 7 -26 11 -29
4 -3 8 -9 9 -15 3 -20 14 -110 15 -124 2 -17 45 -61 52 -53 3 3 6 0 6 -7 0 -7
4 -10 9 -7 16 10 40 -5 34 -20 -3 -9 0 -14 8 -12 8 2 13 -3 11 -10 -2 -11 2
-10 19 1 18 13 24 13 50 -1 16 -10 29 -20 29 -24 0 -5 5 -8 11 -8 5 0 7 6 3
13 -4 6 2 3 14 -7 12 -11 22 -16 22 -11 0 4 7 2 15 -5 8 -7 15 -9 15 -5 0 4 7
2 15 -5 8 -7 15 -9 15 -4 0 5 11 -4 25 -19 29 -30 45 -37 24 -9 -13 16 -13 16
5 2 11 -8 21 -14 23 -12 9 6 23 1 23 -9 0 -8 -5 -8 -15 1 -10 9 -15 9 -15 1 0
-6 5 -11 11 -11 5 0 7 -6 3 -12 -5 -9 -2 -9 9 1 15 12 21 9 19 -9 0 -3 8 -7
19 -7 10 -1 19 3 19 8 0 6 -4 8 -9 5 -5 -3 -14 1 -21 9 -9 10 -9 15 -1 15 6 0
11 -5 11 -11 0 -5 4 -8 9 -4 5 3 12 1 16 -5 4 -6 12 -7 18 -3 7 4 5 -2 -3 -13
-8 -10 -10 -16 -6 -12 5 4 15 3 23 -3 7 -6 13 -8 13 -3 0 5 5 2 11 -6 9 -13
10 -13 6 0 -2 8 -10 14 -16 12 -6 -1 -11 2 -11 8 0 16 18 11 32 -9 19 -27 23
-28 43 -11 15 12 17 12 10 1 -6 -11 -4 -13 9 -8 11 4 15 3 11 -4 -4 -6 -13 -8
-21 -5 -8 3 -14 1 -14 -4 0 -6 9 -10 21 -10 11 0 18 -4 15 -8 -3 -5 1 -9 9 -9
11 0 12 4 4 13 -7 8 -6 14 2 20 8 5 9 3 4 -5 -5 -9 1 -11 23 -8 23 4 29 1 28
-12 0 -9 -5 -20 -11 -24 -6 -5 -4 -7 5 -4 8 2 21 -3 27 -12 11 -13 14 -14 22
-2 5 7 13 11 19 7 6 -3 14 -1 18 5 4 8 3 9 -4 5 -7 -4 -12 -2 -12 4 0 7 6 10
13 7 6 -2 11 -11 9 -21 -2 -9 2 -16 8 -16 5 0 10 5 10 11 0 8 5 7 16 -2 13
-10 17 -10 25 2 8 10 8 7 4 -11 -6 -20 -5 -23 6 -13 19 19 34 16 18 -4 -13
-15 -12 -15 9 -4 18 10 22 9 22 -3 0 -18 22 -26 49 -19 23 6 28 19 9 26 -10 4
-10 6 0 6 7 1 16 -9 21 -22 5 -13 17 -29 27 -37 17 -14 18 -14 5 3 -16 21 -2
22 25 2 10 -8 24 -14 29 -15 6 0 3 5 -5 10 -11 7 -12 10 -2 10 16 0 43 -25 37
-34 -3 -3 -2 -4 2 -1 3 3 13 -1 22 -8 14 -10 14 -10 4 3 -10 13 -8 18 9 29 11
7 17 8 13 2 -3 -6 -1 -11 4 -11 6 0 11 5 11 11 0 5 5 7 11 3 8 -5 6 -10 -5
-16 -9 -5 -22 -6 -29 -2 -9 6 -9 5 0 -8 7 -8 9 -19 5 -23 -4 -5 -2 -5 5 -2 6
4 14 1 17 -5 3 -7 3 -2 0 12 -4 14 -3 22 1 18 5 -4 14 -3 22 3 10 9 13 8 13 0
0 -7 5 -9 10 -6 8 5 7 12 -2 23 -12 15 -11 16 5 3 13 -10 15 -17 6 -27 -6 -8
-16 -11 -23 -8 -6 3 -3 -1 7 -10 11 -8 26 -12 35 -9 11 5 13 3 7 -7 -5 -9 -4
-11 4 -6 6 4 9 11 6 15 -2 5 2 17 11 27 14 19 14 19 12 -1 -2 -15 2 -20 19
-19 13 1 20 -3 16 -9 -4 -6 0 -8 10 -4 10 3 17 2 17 -3 0 -6 3 -9 8 -9 19 3
33 -2 27 -11 -3 -5 -1 -10 4 -10 6 0 11 4 11 10 0 5 11 9 24 8 14 -1 22 -6 20
-10 -3 -4 -1 -8 3 -8 5 0 17 -6 27 -13 15 -11 16 -17 7 -35 -8 -15 -8 -23 1
-28 6 -4 8 -3 5 2 -3 6 -2 16 3 24 8 13 11 12 23 -3 12 -17 14 -17 26 -3 7 9
18 13 23 10 6 -4 5 -10 -3 -16 -10 -6 -7 -7 9 -3 17 5 22 2 22 -12 1 -17 1
-17 11 0 8 14 14 16 25 6 8 -6 14 -8 14 -3 0 4 6 -1 14 -12 8 -10 18 -16 22
-12 4 4 13 3 21 -4 8 -6 13 -7 11 -2 -2 5 2 9 7 9 6 0 9 -3 8 -7 -2 -4 5 -4
15 -1 15 6 15 5 3 -10 -7 -9 -18 -14 -24 -10 -6 3 -7 1 -3 -5 9 -15 48 8 42
25 -6 16 25 26 38 13 8 -8 7 -10 -4 -7 -8 2 -11 2 -7 -1 4 -2 3 -9 -2 -16 -7
-8 -4 -12 12 -13 15 -2 18 0 8 6 -8 5 -9 11 -3 15 5 3 17 -3 27 -14 14 -15 22
-17 37 -9 16 9 20 7 25 -10 3 -12 9 -21 14 -21 5 0 5 7 2 17 -7 18 7 13 39
-14 15 -13 16 -13 13 4 -1 10 -9 17 -16 15 -8 -1 -3 7 10 18 13 11 28 20 35
20 6 -1 0 -7 -14 -15 -14 -8 -22 -15 -17 -16 23 -5 33 -4 39 6 5 6 8 4 8 -5 0
-12 2 -13 9 -1 7 11 12 8 26 -12 13 -21 14 -30 5 -47 -6 -12 -9 -24 -7 -27 3
-2 8 5 12 16 8 25 21 27 33 5 8 -15 10 -15 15 0 5 11 3 15 -5 10 -7 -4 -8 -3
-4 5 10 15 29 3 22 -15 -3 -7 -1 -16 5 -20 6 -3 8 -12 5 -20 -4 -11 0 -11 19
2 29 19 30 23 11 50 -14 19 -15 18 -13 -3 0 -12 5 -19 9 -17 4 3 8 0 8 -6 0
-25 -33 -4 -36 24 -2 15 0 25 3 22 3 -3 12 -1 20 6 8 6 13 7 12 2 -4 -15 12
-44 21 -39 5 3 12 0 16 -6 4 -7 3 -9 -3 -6 -5 3 -10 0 -10 -7 0 -11 4 -12 18
-3 12 7 15 15 9 22 -6 8 -5 12 4 12 16 0 15 -19 -2 -40 -10 -12 -10 -17 -1
-23 8 -5 9 -3 5 5 -5 8 -1 14 12 18 13 3 18 11 15 23 -3 10 -1 20 4 23 6 4 9
-7 8 -23 -1 -20 3 -30 12 -30 8 0 12 4 9 9 -4 5 2 8 11 6 10 -2 24 -4 31 -4
17 -1 15 -18 -3 -18 -8 0 -15 5 -15 10 0 6 -8 3 -17 -6 -23 -20 -34 -22 -45
-5 -8 11 -9 10 -6 -1 5 -16 35 -24 44 -10 3 5 10 9 16 9 6 0 6 -6 -2 -15 -9
-11 -10 -19 -3 -26 8 -8 11 -6 10 7 -1 10 3 19 8 19 6 0 16 4 23 8 14 10 16
-5 2 -19 -7 -7 -2 -10 15 -10 19 0 22 3 13 13 -6 7 -7 13 -2 13 5 0 2 4 -6 10
-8 5 -11 12 -7 17 5 4 11 3 15 -2 9 -13 46 -19 38 -7 -3 5 1 9 9 9 8 0 13 -3
12 -6 -1 -3 2 -7 7 -8 13 -2 28 -32 21 -42 -3 -6 6 -8 21 -5 19 3 24 1 18 -8
-6 -10 -3 -9 9 1 14 11 20 11 32 1 8 -7 12 -17 8 -23 -3 -6 -1 -7 5 -3 9 5 8
15 -3 37 -9 16 -11 29 -5 29 5 0 10 -8 10 -17 0 -9 3 -13 6 -10 4 3 15 2 25
-3 11 -6 20 -6 24 -1 3 5 -3 12 -12 14 -10 3 -6 4 9 4 15 -1 25 -5 22 -9 -9
-13 32 -28 44 -16 7 7 12 8 12 4 0 -5 7 -3 15 4 9 7 18 10 22 6 11 -11 14 -46
4 -46 -6 0 -8 9 -6 20 2 11 0 20 -5 20 -16 0 -18 -15 -6 -39 9 -16 16 -20 20
-12 4 6 12 8 18 5 6 -4 1 -12 -13 -20 -13 -7 -19 -13 -13 -14 5 0 19 6 29 14
11 8 24 12 30 9 7 -2 18 3 25 12 12 15 0 22 -14 8 -11 -12 -37 -12 -30 -1 4 6
3 8 -3 5 -5 -3 -10 0 -10 7 0 8 7 12 16 11 9 -2 16 -4 16 -5 0 -1 10 -3 23 -4
17 -2 21 1 17 13 -5 12 -3 13 5 5 9 -9 8 -18 -4 -37 -16 -23 -16 -26 -1 -41
19 -19 31 -21 18 -4 -5 7 -9 18 -8 23 1 15 24 52 25 40 0 -6 -5 -16 -12 -23
-9 -9 -9 -12 -1 -12 7 0 15 5 18 10 5 8 11 8 19 1 7 -6 16 -8 20 -4 10 10 46
11 40 1 -5 -8 9 -12 34 -9 6 1 12 -3 12 -9 0 -6 4 -9 10 -5 5 3 7 12 3 20 -3
8 -1 15 4 15 5 0 9 -10 9 -23 0 -17 -6 -23 -22 -23 -13 0 -21 3 -18 7 2 5 -5
6 -16 4 -11 -2 -20 0 -20 6 0 18 -16 9 -17 -10 -1 -11 5 -22 13 -25 9 -3 12
-11 8 -17 -4 -8 -3 -9 4 -5 6 4 21 2 32 -4 11 -6 20 -8 20 -6 0 3 -14 13 -30
21 -17 9 -28 20 -25 26 4 5 12 4 20 -4 19 -20 75 -10 69 12 -4 13 -3 12 6 -2
9 -14 15 -16 26 -6 8 6 14 8 14 3 0 -5 8 0 17 11 12 16 14 16 10 3 -3 -10 -2
-20 3 -23 6 -4 10 0 10 7 0 9 3 9 10 -2 5 -8 10 -19 10 -25 0 -5 -5 -3 -10 5
-6 10 -10 11 -10 3 0 -7 -5 -13 -11 -13 -5 0 -8 4 -5 8 7 11 -72 8 -82 -3 -4
-5 1 -5 11 -2 19 7 24 -9 5 -16 -10 -4 -10 -6 0 -6 7 -1 15 6 18 14 5 12 10
13 20 4 8 -6 14 -8 14 -4 0 4 7 2 15 -5 12 -10 18 -10 30 0 17 14 21 0 5 -16
-7 -7 -6 -11 4 -11 8 0 12 5 9 10 -4 6 0 8 10 4 10 -3 17 -2 17 4 0 6 5 7 11
3 8 -4 8 -9 0 -17 -6 -6 -11 -15 -11 -21 0 -5 6 -1 14 9 8 11 12 23 10 27 -3
5 0 8 6 8 6 0 15 -10 20 -22 7 -18 9 -19 9 -5 1 9 6 17 12 17 6 0 8 -9 4 -22
l-6 -23 14 23 c7 12 17 19 22 15 4 -4 5 -2 1 5 -9 14 3 16 24 2 12 -8 12 -10
1 -10 -8 0 -12 -3 -8 -6 12 -12 28 7 18 20 -6 7 -8 16 -4 19 3 4 0 13 -7 22
-8 10 -9 15 -1 15 6 0 11 -4 11 -10 0 -5 6 -10 14 -10 8 0 16 -7 20 -15 3 -8
11 -15 17 -15 8 0 8 4 1 13 -8 9 -8 17 0 27 8 12 9 12 4 -2 -3 -10 -1 -20 4
-23 9 -6 14 8 11 28 -1 5 3 6 8 2 6 -3 8 -11 5 -19 -3 -7 2 -13 11 -13 11 0
13 6 9 20 -4 13 -2 17 5 13 6 -4 11 -14 11 -22 0 -18 18 -14 42 9 17 16 19 16
39 -4 17 -17 23 -18 29 -8 5 7 4 22 -2 32 -7 14 -7 17 1 13 10 -6 15 6 12 26
0 4 6 5 14 2 8 -4 15 -10 15 -16 0 -5 4 -7 10 -3 5 3 7 12 3 20 -5 15 2 17 55
18 15 0 21 4 18 13 -3 9 3 11 20 8 16 -3 23 -1 19 6 -4 6 1 7 11 3 13 -5 15
-3 9 7 -5 9 -4 11 3 6 7 -4 12 -1 12 6 0 11 2 10 9 0 7 -11 9 -10 15 3 3 9 10
14 15 11 5 -3 12 2 16 12 6 16 7 16 19 0 11 -16 15 -16 32 -3 14 11 15 14 3 9
-10 -3 -20 -1 -24 5 -4 7 0 8 11 4 11 -4 15 -3 10 5 -10 17 13 25 30 11 13
-11 15 -10 12 5 -2 12 4 20 16 22 10 1 22 8 26 14 8 13 31 10 43 -5 4 -5 5 3
1 19 -4 19 -3 27 3 23 6 -4 19 3 29 14 24 27 72 52 84 44 6 -3 7 1 4 9 -3 9
-2 16 3 16 5 0 35 19 66 42 118 89 221 163 253 180 32 17 33 17 39 -3 8 -26
52 -44 71 -29 7 6 11 21 8 33 -2 12 -6 33 -9 47 -4 21 5 32 58 72 34 25 103
77 152 115 109 82 240 176 317 227 59 38 88 82 88 132 0 20 11 38 35 60 34 30
35 31 16 51 -11 11 -21 31 -23 44 -2 20 -26 35 -135 89 -73 36 -133 68 -133
72 0 4 7 5 15 2 21 -8 19 12 -2 22 -10 4 -20 8 -23 8 -3 1 -9 4 -15 7 -5 4
-23 9 -40 13 -29 7 -29 7 -11 -13 26 -28 14 -27 -85 13 -46 19 -122 46 -169
62 -47 15 -101 36 -120 47 -19 11 -80 31 -135 44 -55 13 -108 26 -117 28 -92
25 -127 28 -142 16 -8 -7 -27 -9 -47 -5 -19 3 -43 8 -54 9 -11 2 -58 8 -105
15 -47 7 -94 13 -105 15 -11 2 -32 4 -47 4 -25 1 -133 85 -358 278 -14 11 -69
58 -122 102 -53 45 -101 88 -106 97 -5 9 -13 15 -18 15 -5 -1 -40 25 -79 57
-38 31 -118 93 -177 135 -73 53 -108 85 -108 98 0 10 -3 19 -7 19 -5 0 -22 13
-40 28 -17 15 -63 52 -101 82 -39 30 -80 71 -93 90 -50 73 -105 115 -176 135
-26 8 -68 21 -93 30 -49 19 -235 59 -315 69 -27 4 -61 9 -75 11 -14 3 -36 8
-50 10 -14 3 -41 8 -60 11 -19 3 -42 7 -50 9 -14 4 -50 8 -175 20 -93 9 -490
12 -550 4z m337 -130 c53 -2 95 -6 93 -9 -2 -4 -21 -6 -42 -4 -21 2 -66 3
-100 3 -37 1 -63 5 -63 12 0 5 4 8 8 5 4 -2 51 -6 104 -7z m333 -21 c4 -4 -16
-5 -44 -4 -67 4 -76 13 -12 12 28 -1 53 -4 56 -8z m100 -8 c3 -5 -15 -7 -40
-7 -25 1 -45 5 -45 9 0 9 79 7 85 -2z m60 -10 c-6 -10 -45 -1 -45 10 0 4 11 5
25 2 14 -2 23 -8 20 -12z m65 0 c11 -7 6 -9 -17 -7 -18 1 -33 5 -33 10 0 10
32 9 50 -3z m-655 -24 c105 -4 208 -8 230 -10 22 -3 94 -7 160 -10 66 -4 131
-8 145 -11 14 -2 64 -6 111 -9 47 -3 93 -8 102 -12 8 -3 39 -7 69 -9 105 -7
218 -41 318 -97 65 -37 82 -56 69 -80 -14 -26 -11 -45 10 -51 31 -8 72 -195
72 -333 0 -31 -2 -59 -6 -62 -4 -4 -54 -8 -113 -9 -608 -10 -1185 -33 -1201
-49 -4 -4 -71 81 -71 90 0 3 -8 14 -17 24 -48 51 -88 113 -84 131 1 7 0 25 -4
38 -5 20 -11 24 -31 20 -20 -4 -31 6 -73 62 -64 87 -68 96 -48 88 13 -5 12 0
-5 28 -11 19 -21 40 -22 47 -2 7 -8 33 -15 58 -7 25 -15 56 -17 70 -3 14 -7
33 -10 43 -3 11 1 19 13 23 10 3 31 11 47 18 29 12 46 12 371 2z m-465 -44 c0
-21 5 -43 10 -48 11 -11 52 -145 46 -151 -3 -3 -101 171 -112 201 -8 20 9 36
39 36 13 0 17 -8 17 -38z m1826 -150 c10 -10 50 -41 88 -70 79 -60 77 -69 -4
-16 -30 19 -72 45 -92 56 -21 12 -38 28 -38 35 0 19 23 16 46 -5z m50 -135
c201 -134 222 -150 229 -175 4 -17 11 -22 24 -17 11 3 28 -4 44 -19 30 -28 33
-36 14 -36 -7 0 -29 -9 -50 -20 -20 -11 -43 -20 -51 -20 -8 0 -28 -16 -44 -35
l-31 -35 -101 -3 c-55 -2 -103 0 -106 4 -11 18 -7 108 5 123 15 18 7 71 -9 61
-6 -3 -11 1 -11 9 -1 9 -2 19 -3 24 -2 4 -6 30 -11 57 -4 28 -18 78 -31 113
-13 34 -19 62 -15 62 5 0 71 -42 147 -93z m-1856 15 c24 -37 73 -106 108 -155
62 -84 72 -117 37 -117 -8 0 -15 -4 -15 -10 0 -5 -7 -10 -15 -10 -8 0 -15 -4
-15 -10 0 -5 -8 -10 -17 -10 -18 0 -65 -58 -77 -95 -3 -11 -28 -34 -54 -52
-26 -18 -62 -46 -81 -63 -33 -30 -51 -35 -35 -8 5 7 9 18 10 23 2 6 16 62 33
125 35 131 41 180 46 335 2 61 4 111 4 113 1 1 7 2 14 2 6 0 32 -30 57 -68z
m2284 -334 c7 -7 34 -31 61 -53 92 -76 270 -228 333 -282 35 -31 74 -65 88
-76 14 -10 23 -22 20 -25 -8 -7 -77 29 -97 51 -9 9 -21 17 -28 17 -6 0 -11 5
-11 12 0 6 -3 9 -6 5 -3 -3 -42 19 -86 49 -44 30 -82 54 -84 54 -7 0 -209 144
-234 166 -14 13 -42 30 -64 39 -42 18 -41 24 7 42 43 15 86 16 101 1z m-2001
-63 c27 -39 34 -55 23 -55 -8 0 -38 -22 -67 -50 -28 -27 -68 -55 -88 -61 -20
-7 -51 -18 -68 -26 -18 -7 -36 -14 -40 -14 -36 -6 -210 -121 -278 -183 -27
-25 -53 -45 -57 -46 -16 0 70 109 147 186 81 83 167 148 179 137 3 -4 24 -7
46 -8 36 -1 40 1 45 27 3 15 8 43 12 61 4 17 7 37 7 42 1 12 64 45 86 45 8 0
32 -25 53 -55z m1797 35 c0 -5 -4 -10 -10 -10 -5 0 -10 5 -10 10 0 6 5 10 10
10 6 0 10 -4 10 -10z m-1996 -74 c-5 -23 -27 -34 -25 -13 2 30 15 57 23 49 5
-5 6 -21 2 -36z m4061 -636 c-3 -5 -12 -7 -20 -3 -21 7 -19 13 6 13 11 0 18
-4 14 -10z m-4715 -680 c0 -5 -2 -10 -4 -10 -3 0 -8 5 -11 10 -3 6 -1 10 4 10
6 0 11 -4 11 -10z m4344 -212 c14 -52 3 -60 -35 -29 -20 16 -21 21 -10 35 19
23 38 20 45 -6z m-3768 -7 c-3 -5 1 -11 9 -15 8 -3 15 0 15 6 0 6 3 8 6 5 4
-4 1 -13 -6 -22 -11 -14 -14 -13 -25 2 -12 16 -11 33 1 33 3 0 3 -4 0 -9z
m224 -86 c0 -15 -18 -1 -29 23 l-13 27 21 -22 c12 -12 21 -25 21 -28z m80 4
c0 -4 -6 -9 -13 -12 -8 -3 -14 0 -14 7 0 7 6 13 14 13 7 0 13 -4 13 -8z m43
-16 c-7 -2 -19 -2 -25 0 -7 3 -2 5 12 5 14 0 19 -2 13 -5z m51 -24 c-3 -5 -10
-7 -15 -3 -5 3 -7 10 -3 15 3 5 10 7 15 3 5 -3 7 -10 3 -15z m122 -37 c-17
-16 -18 -16 -5 5 7 12 15 20 18 17 3 -2 -3 -12 -13 -22z m251 -54 c-3 -8 -6
-5 -6 6 -1 11 2 17 5 13 3 -3 4 -12 1 -19z m49 4 c-3 -5 5 -17 16 -27 15 -12
23 -14 26 -7 2 7 8 12 13 12 6 0 7 -5 3 -11 -4 -8 1 -9 17 -5 13 3 18 3 11 0
-6 -3 -9 -10 -6 -15 3 -6 12 -5 22 3 13 11 14 11 8 0 -5 -9 -3 -13 5 -11 30 4
50 -2 47 -13 -6 -18 -45 -20 -52 -2 -3 8 -10 13 -15 9 -5 -3 -12 -1 -16 5 -4
6 -11 8 -16 4 -5 -3 -21 1 -34 10 -20 13 -25 13 -35 1 -11 -13 -14 -13 -25 2
-7 9 -10 24 -7 31 4 11 8 9 17 -8 7 -14 15 -18 19 -12 3 6 2 13 -4 17 -10 6
-5 25 6 25 3 0 3 -4 0 -8z m125 -29 c13 -16 12 -17 -3 -4 -17 13 -22 21 -14
21 2 0 10 -8 17 -17z m79 -33 c12 -7 12 -12 2 -22 -9 -9 -15 -9 -24 1 -11 10
-9 11 7 6 20 -7 20 -6 1 9 -21 17 -11 22 14 6z m93 -37 c4 -7 13 -13 19 -13 7
0 7 5 -1 14 -8 10 -9 16 -1 21 6 4 9 1 8 -7 -2 -9 7 -12 27 -11 17 1 22 -1 13
-4 -10 -2 -18 -8 -18 -13 0 -12 25 -6 46 10 18 14 18 14 1 -7 -18 -20 -39 -24
-53 -10 -4 3 -14 2 -24 -3 -13 -7 -22 -4 -34 9 -9 10 -13 21 -9 24 3 4 2 7 -4
7 -6 0 -14 8 -17 17 -6 14 -3 14 16 -3 13 -10 27 -25 31 -31z m249 -62 c-9
-10 -21 -15 -27 -13 -5 3 -4 7 3 10 7 2 10 7 8 11 -3 4 4 7 14 8 18 2 18 1 2
-16z m93 0 c3 -5 2 -12 -3 -15 -5 -3 -9 1 -9 9 0 17 3 19 12 6z m105 -31 c0
-5 -5 -10 -11 -10 -5 0 -7 5 -4 10 3 6 8 10 11 10 2 0 4 -4 4 -10z m161 -53
c-10 -9 -11 -8 -5 6 3 10 9 15 12 12 3 -3 0 -11 -7 -18z m42 -30 c-5 -8 -8 -7
-11 1 -3 10 -7 10 -18 1 -9 -7 -14 -8 -14 -1 0 6 6 12 13 15 18 6 38 -4 30
-16z m448 -44 c13 -16 12 -17 -3 -4 -17 13 -22 21 -14 21 2 0 10 -8 17 -17z
m88 -31 c-1 -15 -2 -15 -6 1 -2 9 -9 14 -15 11 -7 -4 -8 -2 -4 5 10 15 26 4
25 -17z m480 18 c-6 -5 -18 -6 -26 -3 -19 8 -16 11 13 11 17 0 22 -3 13 -8z
m-385 -13 c4 4 4 -1 0 -10 -3 -10 -7 -17 -8 -15 -1 2 -8 12 -16 23 -14 18 -13
19 1 8 9 -7 19 -10 23 -6z m266 3 c0 -5 -5 -10 -11 -10 -5 0 -7 5 -4 10 3 6 8
10 11 10 2 0 4 -4 4 -10z m-189 -25 c12 2 15 -3 12 -16 -3 -11 0 -19 6 -19 7
0 10 4 7 8 -2 4 6 9 20 10 13 1 24 -3 24 -8 0 -5 -7 -7 -15 -3 -10 3 -15 1
-13 -7 3 -14 -40 -21 -48 -8 -3 4 -18 6 -34 3 -28 -5 -56 15 -32 23 7 2 10 8
6 13 -3 5 11 0 30 -12 31 -18 36 -19 36 -5 0 9 -5 15 -12 14 -6 -2 -13 6 -15
17 -2 16 -1 16 5 4 4 -9 14 -15 23 -14z m55 13 c4 -7 3 -8 -4 -4 -7 4 -12 2
-12 -5 0 -7 -3 -10 -6 -6 -6 5 3 27 11 27 2 0 7 -5 11 -12z m77 -3 c-3 -9 -8
-14 -10 -11 -3 3 -2 9 2 15 9 16 15 13 8 -4z m96 -19 c-3 -3 -11 5 -18 17 -13
21 -12 21 5 5 10 -10 16 -20 13 -22z m31 24 c0 -5 -5 -10 -11 -10 -5 0 -7 5
-4 10 3 6 8 10 11 10 2 0 4 -4 4 -10z m50 -21 c0 -6 -4 -7 -10 -4 -5 3 -10 11
-10 16 0 6 5 7 10 4 6 -3 10 -11 10 -16z"/>
<path d="M1960 1606 c0 -2 8 -10 18 -17 15 -13 16 -12 3 4 -13 16 -21 21 -21
13z"/>
<path d="M3275 1310 c-3 -5 -1 -10 4 -10 6 0 11 5 11 10 0 6 -2 10 -4 10 -3 0
-8 -4 -11 -10z"/>
<path d="M220 2140 c-9 -6 -10 -10 -3 -10 6 0 15 5 18 10 8 12 4 12 -15 0z"/>
<path d="M304 2108 c-4 -7 -4 -10 1 -6 4 4 15 2 24 -5 14 -11 14 -10 2 6 -16
20 -18 21 -27 5z"/>
<path d="M415 2060 c-3 -5 -1 -10 4 -10 6 0 11 5 11 10 0 6 -2 10 -4 10 -3 0
-8 -4 -11 -10z"/>
<path d="M470 2040 c-12 -7 -10 -9 7 -7 12 0 19 5 17 9 -6 10 -6 10 -24 -2z"/>
<path d="M815 1910 c-3 -5 -1 -10 4 -10 6 0 11 5 11 10 0 6 -2 10 -4 10 -3 0
-8 -4 -11 -10z"/>
<path d="M941 1850 c-9 -5 -4 -7 13 -7 29 0 32 2 13 10 -8 3 -20 2 -26 -3z"/>
<path d="M1110 1801 c0 -5 7 -11 14 -14 10 -4 13 -1 9 9 -6 15 -23 19 -23 5z"/>
<path d="M1070 1790 c0 -5 5 -10 11 -10 5 0 7 5 4 10 -3 6 -8 10 -11 10 -2 0
-4 -4 -4 -10z"/>
<path d="M1414 1741 c5 -7 0 -22 -11 -34 -12 -14 -13 -18 -2 -9 9 6 20 8 24 4
5 -4 5 -1 1 6 -9 15 6 16 21 1 9 -9 11 -7 9 7 -2 11 -7 19 -12 19 -5 0 -15 4
-23 9 -10 6 -12 6 -7 -3z"/>
<path d="M1330 1730 c0 -5 5 -10 11 -10 5 0 7 5 4 10 -3 6 -8 10 -11 10 -2 0
-4 -4 -4 -10z"/>
<path d="M1470 1709 c0 -5 5 -7 10 -4 6 3 10 8 10 11 0 2 -4 4 -10 4 -5 0 -10
-5 -10 -11z"/>
<path d="M1493 1700 c-11 -16 -10 -18 2 -14 8 4 15 12 15 20 0 19 -3 18 -17
-6z"/>
<path d="M1550 1697 c0 -8 6 -20 14 -26 10 -9 17 -7 27 6 13 17 13 17 -4 4
-17 -13 -18 -13 -15 4 1 10 -3 20 -9 22 -7 3 -13 -2 -13 -10z"/>
<path d="M1532 1666 c1 -14 5 -23 9 -20 7 4 0 44 -7 44 -2 0 -3 -11 -2 -24z"/>
<path d="M1591 1660 c-13 -11 -19 -20 -14 -20 6 0 18 9 28 20 23 25 17 25 -14
0z"/>
<path d="M4233 1635 c0 -8 4 -12 9 -9 5 3 6 10 3 15 -9 13 -12 11 -12 -6z"/>
<path d="M4276 1628 c3 -5 10 -6 15 -3 13 9 11 12 -6 12 -8 0 -12 -4 -9 -9z"/>
<path d="M4170 1619 c0 -7 -3 -9 -7 -6 -9 9 -64 -44 -57 -55 11 -17 -7 -28
-27 -18 -15 8 -21 7 -25 -4 -3 -8 -13 -13 -22 -11 -12 2 -17 -4 -18 -19 -1
-18 4 -22 27 -22 17 0 28 4 26 10 -2 6 -11 10 -21 8 -9 -2 -16 2 -16 7 0 5 9
8 19 6 15 -3 18 1 14 13 -4 13 -2 12 11 -3 10 -11 15 -14 11 -8 -4 9 -1 11 9
7 19 -7 21 -25 4 -21 -7 1 -12 -4 -10 -10 2 -12 -10 -17 -30 -14 -5 0 -8 -4
-8 -11 0 -6 -3 -8 -7 -5 -3 4 -13 1 -21 -6 -13 -10 -14 -9 -7 2 6 10 4 12 -6
6 -8 -5 -11 -5 -7 0 10 10 -10 45 -25 45 -8 0 -7 -4 3 -10 13 -9 12 -13 -8
-30 -13 -11 -21 -25 -17 -32 4 -7 -1 -4 -9 6 -9 11 -16 25 -16 30 0 6 -5 3
-11 -7 -6 -9 -14 -15 -19 -12 -13 8 -21 -27 -9 -42 17 -20 24 -7 8 14 -11 15
-11 16 1 6 10 -10 17 -10 27 -1 8 6 13 7 12 2 -1 -5 0 -11 1 -14 8 -22 7 -40
-3 -37 -7 2 -11 13 -9 23 2 18 2 18 -8 1 -6 -9 -15 -15 -21 -12 -9 6 -13 -9
-9 -30 1 -5 -4 -4 -11 3 -14 13 -30 16 -28 5 3 -21 -2 -33 -12 -27 -8 4 -7 9
2 15 11 7 11 9 1 9 -7 0 -15 -7 -19 -15 -4 -12 -10 -9 -28 15 -15 21 -25 27
-28 18 -4 -10 -8 -10 -16 2 -8 11 -11 12 -11 2 0 -7 -5 -10 -12 -6 -7 5 -8 3
-3 -6 10 -17 -16 -32 -32 -18 -7 6 -14 7 -14 2 -1 -5 -3 -19 -4 -30 -4 -40
-14 -46 -46 -27 -26 16 -31 16 -39 3 -6 -9 -25 -15 -47 -15 -21 0 -44 -4 -51
-9 -8 -5 -20 -2 -32 9 -12 11 -20 13 -25 6 -3 -6 1 -11 10 -11 10 0 13 -5 9
-12 -4 -7 -3 -8 4 -4 7 4 12 2 12 -5 0 -7 3 -9 6 -6 4 3 15 2 25 -4 15 -7 21
-6 25 6 3 8 10 12 16 9 5 -3 4 -11 -3 -20 -8 -10 -8 -14 0 -14 6 0 11 4 11 9
0 5 16 8 35 6 19 -1 32 2 29 7 -3 4 -10 6 -15 3 -10 -7 -13 8 -3 18 9 9 34 -4
34 -18 0 -23 31 -27 37 -5 3 11 10 20 15 20 5 0 7 -4 3 -9 -3 -6 4 -15 15 -21
18 -10 22 -8 27 9 3 11 14 23 24 26 18 6 23 16 20 40 0 6 8 11 19 12 19 2 19
0 5 -20 -20 -29 -19 -37 5 -37 11 0 20 4 20 10 0 5 -8 6 -17 3 -17 -7 -17 -5
-2 17 9 13 22 26 30 28 11 4 11 2 2 -8 -13 -14 -6 -43 8 -34 5 3 9 0 9 -7 0
-8 3 -9 13 0 14 11 27 5 27 -11 0 -5 -6 -6 -12 -2 -10 5 -10 4 -1 -6 18 -19
30 -3 15 20 -7 12 -8 21 -2 25 6 3 10 1 10 -4 0 -19 31 -12 52 12 13 15 18 17
15 5 -3 -9 1 -24 8 -35 8 -10 15 -13 15 -7 0 6 -3 14 -7 18 -10 10 -11 46 -1
52 8 5 12 -10 9 -35 -2 -7 2 -10 7 -7 6 3 12 -1 16 -9 3 -8 0 -15 -6 -15 -6 0
-9 -3 -5 -6 3 -3 10 -3 16 1 8 4 6 16 -4 36 -10 18 -11 29 -5 29 6 0 18 -15
26 -32 15 -33 15 -33 9 -4 -5 24 -4 27 7 18 11 -8 17 -6 26 9 11 17 10 23 -10
39 -13 11 -18 19 -11 20 6 0 15 -5 18 -10 5 -8 12 -7 23 2 14 11 15 10 9 -6
-8 -19 8 -46 26 -46 6 0 2 6 -9 14 -21 16 -19 22 10 28 10 1 21 -3 23 -10 3
-8 -2 -10 -14 -6 -15 5 -15 4 -3 -5 12 -8 19 -5 33 14 11 14 24 22 30 18 7 -3
3 3 -7 15 -11 12 -14 22 -8 22 6 0 19 -11 30 -25 20 -25 42 -33 42 -15 0 5 -5
9 -11 8 -6 -2 -14 3 -17 11 -3 9 0 11 7 7 7 -4 18 -2 26 4 12 10 16 9 21 -4 3
-9 11 -16 16 -16 6 0 5 6 -2 15 -10 12 -10 18 0 30 7 8 16 13 20 10 5 -3 14 1
22 8 7 8 19 12 26 11 7 -1 8 0 2 3 -5 2 -7 9 -4 15 3 5 -3 4 -15 -4 -12 -7
-21 -16 -21 -21 0 -4 -4 -6 -9 -2 -5 3 -16 -2 -24 -10 -21 -20 -27 -19 -24 5
4 22 17 40 17 22 0 -7 15 -2 36 10 37 22 37 22 16 39 -12 9 -18 20 -14 24 4 5
2 5 -5 1 -6 -3 -14 -2 -18 4 -3 5 -1 10 6 10 7 0 9 3 6 7 -4 3 -16 -2 -27 -12
-14 -13 -17 -22 -10 -30 8 -9 4 -12 -14 -12 -24 0 -24 0 -8 26 9 14 21 29 27
33 6 5 5 8 -3 8 -7 0 -15 -6 -18 -13 -5 -15 -34 -19 -34 -5 0 4 5 8 10 8 6 0
10 5 10 11 0 5 -10 3 -22 -5 -31 -22 -48 -19 -21 3 12 10 19 21 16 25 -10 9
-25 7 -19 -3 3 -5 -2 -15 -11 -22 -14 -12 -15 -11 -9 8 4 12 2 24 -4 28 -5 3
-10 1 -10 -6z m4 -24 c-6 -15 19 -37 37 -33 9 2 13 -5 12 -17 -1 -20 -1 -20
13 -1 8 11 14 15 14 9 0 -7 -5 -15 -10 -18 -20 -12 2 -25 36 -20 24 3 33 1 28
-7 -5 -7 -2 -8 6 -3 10 6 7 12 -10 25 -15 11 -19 19 -11 24 6 4 11 3 11 -2 0
-5 11 -15 26 -22 l25 -14 -26 -13 c-14 -8 -30 -11 -35 -8 -12 7 -25 -15 -25
-44 -1 -14 -7 -27 -14 -29 -10 -3 -11 0 -5 9 7 12 5 12 -9 0 -14 -11 -20 -11
-32 -1 -12 10 -19 10 -28 1 -9 -9 -9 -14 1 -20 10 -6 10 -10 -2 -20 -10 -8
-16 -9 -21 -1 -3 5 -1 10 6 10 10 0 10 3 1 12 -14 14 -16 32 -3 23 5 -3 13 -1
16 5 4 6 3 10 -2 9 -20 -3 -27 2 -13 11 13 9 13 11 0 20 -9 6 -11 10 -3 10 7
0 17 -9 23 -21 7 -13 17 -18 27 -15 11 4 13 2 9 -9 -4 -12 -2 -13 14 -2 25 15
26 28 3 21 -15 -5 -15 -3 1 10 11 9 23 16 28 16 4 0 8 5 8 12 0 9 -3 9 -12 0
-14 -14 -32 -16 -23 -2 4 6 -1 7 -12 4 -15 -5 -16 -4 -3 5 11 8 11 11 3 12
-13 2 -27 5 -40 9 -5 1 -11 2 -15 1 -4 0 -5 6 -2 14 4 8 1 15 -6 15 -6 0 -9
-4 -6 -9 3 -5 -1 -14 -9 -21 -11 -9 -12 -16 -5 -25 8 -9 8 -15 0 -20 -5 -3
-10 -1 -10 5 0 6 -5 8 -12 4 -9 -6 -9 -9 0 -12 22 -7 -7 -30 -31 -25 -18 4
-19 3 -7 -6 8 -6 12 -11 8 -11 -3 0 -14 -3 -24 -7 -13 -5 -15 -3 -9 7 5 9 4
11 -4 6 -6 -4 -9 -12 -6 -17 4 -5 1 -9 -4 -9 -6 0 -11 4 -11 10 0 5 -12 -2
-27 -17 -16 -14 -27 -31 -25 -38 3 -15 -26 -41 -35 -31 -4 4 -3 10 3 14 12 8
12 42 1 60 -6 8 -4 12 5 10 7 -2 12 2 11 8 -1 7 8 20 20 30 12 10 19 15 15 10
-4 -5 -3 -15 3 -23 9 -10 15 -10 25 -2 8 6 14 9 14 5 0 -4 14 1 30 9 17 9 28
20 25 26 -4 5 -1 8 7 7 7 -2 13 4 13 12 0 8 4 20 8 27 4 6 2 15 -4 18 -7 5 -3
15 10 29 22 24 52 31 45 11z m16 -75 c3 -1 9 -2 13 -1 5 1 6 -3 2 -9 -3 -5 1
-13 9 -16 13 -5 13 -8 1 -20 -15 -15 -29 -19 -21 -6 3 5 -8 16 -25 26 -39 23
-23 43 21 26z m-50 -60 c-8 -6 -10 -10 -5 -10 6 0 11 -12 10 -27 0 -30 -25
-39 -32 -13 -4 13 -3 13 5 1 8 -11 10 -7 9 13 -2 20 -4 23 -12 13 -5 -8 -13
-14 -18 -15 -4 0 -11 -2 -15 -5 -4 -2 -1 -2 6 -1 13 4 16 -8 5 -19 -3 -4 -12
-2 -20 5 -10 8 -17 8 -25 0 -16 -16 -17 -49 -2 -49 10 0 10 5 2 21 -11 21 -11
21 10 2 24 -21 20 -38 -6 -32 -66 15 -86 38 -49 58 12 7 25 11 30 10 12 -3 82
35 97 53 7 8 15 13 19 10 3 -3 -1 -10 -9 -15z m-210 -10 c0 -5 -5 -10 -11 -10
-5 0 -7 5 -4 10 3 6 8 10 11 10 2 0 4 -4 4 -10z m5 -107 c0 -29 -24 -40 -33
-15 -2 8 2 10 14 5 16 -6 17 -5 4 9 -11 11 -17 13 -23 4 -5 -7 -7 -3 -5 9 7
46 44 36 43 -12z m-141 6 c-3 -5 -9 -7 -14 -4 -4 3 -13 -2 -20 -10 -10 -12
-10 -15 0 -15 10 0 10 -3 0 -15 -7 -8 -16 -12 -21 -9 -5 2 -11 -6 -15 -20 -4
-16 -11 -23 -20 -19 -13 5 -12 9 3 27 10 11 11 16 4 9 -7 -6 -20 -9 -27 -6 -8
3 -17 -4 -22 -17 -8 -22 -8 -22 -26 5 -17 25 -17 26 1 17 20 -11 58 9 45 23
-4 5 -2 5 5 1 6 -3 14 -2 18 4 3 5 1 10 -4 10 -6 0 -11 4 -11 8 0 5 7 9 15 9
8 0 12 -4 10 -8 -3 -4 2 -9 10 -13 8 -3 17 -1 20 4 4 6 1 10 -5 10 -7 0 -10 6
-7 13 2 6 9 12 15 12 5 0 14 3 18 7 9 10 35 -12 28 -23z m90 -6 c9 -24 -17
-48 -39 -36 -16 9 -16 11 4 25 11 8 18 18 14 21 -3 4 -2 7 4 7 6 0 14 -8 17
-17z m-294 -58 c-18 -19 -26 -22 -37 -14 -18 15 -16 19 6 14 11 -2 25 3 32 11
6 8 14 14 17 14 3 0 -5 -11 -18 -25z m-68 -14 c-4 -10 -7 -11 -10 -3 -2 7 -9
9 -14 6 -6 -4 -8 -3 -5 3 10 16 36 11 29 -6z"/>
<path d="M4136 1581 c-12 -13 -14 -21 -6 -26 8 -5 7 -11 -2 -23 -12 -15 -11
-16 4 -3 10 7 16 17 13 21 -10 17 18 23 30 7 14 -20 31 -22 41 -5 4 7 3 8 -5
4 -12 -8 -64 28 -54 38 3 3 4 6 1 6 -3 0 -13 -9 -22 -19z"/>
<path d="M3979 1456 c-3 -14 -7 -26 -9 -28 -1 -2 -3 -11 -5 -20 -3 -17 -2 -17
21 0 13 9 24 20 24 23 0 9 -30 33 -31 25z m15 -15 c3 -5 -2 -15 -12 -22 -15
-12 -16 -12 -5 2 7 9 10 19 6 22 -3 4 -4 7 0 7 3 0 8 -4 11 -9z"/>
<path d="M4170 1511 c0 -6 4 -13 10 -16 6 -3 7 1 4 9 -7 18 -14 21 -14 7z"/>
<path d="M4014 1395 c-4 -8 -11 -12 -17 -8 -6 3 -7 1 -3 -5 10 -16 14 -15 26
8 6 11 8 20 5 20 -3 0 -8 -7 -11 -15z"/>
<path d="M3765 1360 c-4 -6 -11 -7 -17 -4 -7 4 -8 2 -4 -5 6 -8 12 -9 20 -2 7
6 17 7 21 3 5 -4 5 -1 1 6 -9 15 -13 15 -21 2z"/>
<path d="M3699 1303 c-12 -16 -12 -17 2 -6 9 7 19 10 22 6 4 -3 7 -1 7 5 0 17
-16 15 -31 -5z"/>
<path d="M3860 1330 c-9 -6 -10 -10 -3 -10 6 0 15 5 18 10 8 12 4 12 -15 0z"/>
<path d="M1650 1616 c0 -2 7 -7 16 -10 8 -3 12 -2 9 4 -6 10 -25 14 -25 6z"/>
<path d="M4258 1608 c5 -5 16 -8 23 -6 8 3 3 7 -10 11 -17 4 -21 3 -13 -5z"/>
<path d="M4305 1609 c-3 -4 2 -6 10 -5 21 3 28 13 10 13 -9 0 -18 -4 -20 -8z"/>
<path d="M4337 1569 c7 -7 15 -10 18 -7 3 3 -2 9 -12 12 -14 6 -15 5 -6 -5z"/>
<path d="M4388 1551 c-10 -16 -15 -18 -28 -8 -13 11 -13 10 -1 -5 17 -22 16
-23 35 7 9 14 14 25 11 25 -3 0 -10 -9 -17 -19z"/>
<path d="M1950 1556 c0 -2 7 -7 16 -10 8 -3 12 -2 9 4 -6 10 -25 14 -25 6z"/>
<path d="M2110 1549 c0 -13 28 -17 39 -6 9 9 11 8 6 -5 -4 -10 -3 -18 3 -18
15 0 22 14 14 26 -8 12 -62 14 -62 3z"/>
<path d="M4415 1541 c-3 -5 -2 -12 3 -15 5 -3 9 1 9 9 0 17 -3 19 -12 6z"/>
<path d="M2055 1530 c-3 -5 -1 -10 4 -10 6 0 11 5 11 10 0 6 -2 10 -4 10 -3 0
-8 -4 -11 -10z"/>
<path d="M2117 1515 c3 -8 9 -12 14 -9 12 7 11 11 -5 17 -10 4 -13 1 -9 -8z"/>
<path d="M2086 1512 c-3 -5 1 -9 9 -9 8 0 12 4 9 9 -3 4 -7 8 -9 8 -2 0 -6 -4
-9 -8z"/>
<path d="M4386 1512 c-7 -12 12 -38 21 -29 4 5 1 12 -6 16 -11 7 -11 10 0 14
9 3 10 6 2 6 -6 1 -14 -3 -17 -7z"/>
<path d="M4420 1506 c0 -2 7 -7 16 -10 8 -3 12 -2 9 4 -6 10 -25 14 -25 6z"/>
<path d="M2195 1491 c-3 -5 -2 -12 3 -15 5 -3 9 1 9 9 0 17 -3 19 -12 6z"/>
<path d="M2115 1479 c-4 -6 -5 -12 -2 -15 2 -3 7 2 10 11 7 17 1 20 -8 4z"/>
<path d="M4536 1477 c3 -10 9 -15 12 -12 3 3 0 11 -7 18 -10 9 -11 8 -5 -6z"/>
<path d="M2070 1471 c0 -6 4 -13 10 -16 6 -3 7 1 4 9 -7 18 -14 21 -14 7z"/>
<path d="M4420 1475 c0 -8 29 -12 39 -5 9 5 4 8 -13 8 -14 0 -26 -2 -26 -3z"/>
<path d="M4513 1455 c0 -8 4 -12 9 -9 5 3 6 10 3 15 -9 13 -12 11 -12 -6z"/>
<path d="M2315 1440 c10 -11 20 -20 23 -20 3 0 -3 9 -13 20 -10 11 -20 20 -23
20 -3 0 3 -9 13 -20z"/>
<path d="M2498 1455 c-3 -6 0 -15 7 -22 11 -10 15 -10 18 0 3 7 6 4 6 -5 1
-10 5 -18 11 -18 5 0 7 7 4 15 -5 11 -2 14 12 9 17 -6 17 -5 -1 9 -13 10 -24
12 -31 6 -8 -7 -13 -6 -16 3 -3 7 -7 8 -10 3z"/>
<path d="M4370 1455 c0 -15 18 -40 24 -34 3 3 -1 14 -9 25 -8 10 -14 15 -15 9z"/>
<path d="M4415 1449 c-4 -6 -5 -12 -2 -15 2 -3 7 2 10 11 7 17 1 20 -8 4z"/>
<path d="M4453 1448 c-4 -7 -1 -8 7 -3 10 6 12 4 6 -10 -6 -16 -4 -16 11 -4
10 7 19 14 21 15 1 1 -6 4 -18 7 -11 3 -23 0 -27 -5z"/>
<path d="M4350 1441 c0 -7 -4 -9 -10 -6 -6 4 -7 -1 -4 -12 5 -16 4 -16 -10 1
-9 11 -16 15 -16 9 0 -6 6 -16 14 -22 12 -10 17 -8 26 9 6 12 9 24 6 28 -3 3
-6 0 -6 -7z"/>
<path d="M3845 1424 c-11 -8 -25 -12 -33 -9 -7 2 -11 1 -7 -4 3 -5 -1 -11 -7
-14 -10 -3 -10 -7 1 -20 12 -16 15 -15 41 3 20 14 30 16 32 8 3 -8 6 -7 10 3
3 8 1 22 -6 31 -10 14 -14 14 -31 2z m31 -16 c4 -6 3 -8 -4 -4 -6 3 -13 2 -17
-4 -4 -6 -10 -8 -15 -5 -4 3 -11 -2 -14 -11 -3 -8 -11 -12 -17 -8 -9 5 -7 11
6 20 10 7 22 11 26 8 5 -3 9 0 9 5 0 15 17 14 26 -1z"/>
<path d="M4433 1422 c2 -12 6 -24 10 -28 3 -4 4 4 2 16 -6 30 -16 40 -12 12z"/>
<path d="M4693 1415 c0 -8 4 -12 9 -9 5 3 6 10 3 15 -9 13 -12 11 -12 -6z"/>
<path d="M2725 1410 c-3 -6 -10 -8 -15 -5 -5 3 -12 0 -16 -6 -4 -7 -3 -9 4 -5
5 3 12 0 15 -6 3 -10 7 -10 17 -1 7 6 20 9 29 6 17 -7 16 -5 -11 15 -11 9 -18
10 -23 2z"/>
<path d="M4351 1397 c-13 -21 -12 -21 5 -5 10 10 16 20 13 22 -3 3 -11 -5 -18
-17z"/>
<path d="M2781 1392 c-14 -25 -14 -43 -1 -22 9 13 10 13 10 0 0 -11 3 -11 11
3 8 13 8 22 1 29 -7 7 -14 3 -21 -10z"/>
<path d="M2555 1390 c3 -5 8 -10 11 -10 2 0 4 5 4 10 0 6 -5 10 -11 10 -5 0
-7 -4 -4 -10z"/>
<path d="M2580 1396 c0 -2 8 -10 18 -17 15 -13 16 -12 3 4 -13 16 -21 21 -21
13z"/>
<path d="M2633 1380 c5 -29 13 -33 13 -5 0 14 -4 25 -8 25 -4 0 -7 -9 -5 -20z"/>
<path d="M4396 1384 c-20 -19 -20 -20 3 -20 12 0 17 5 13 15 -4 10 -1 12 8 6
9 -5 11 -4 6 3 -9 15 -12 15 -30 -4z"/>
<path d="M4576 1388 c3 -5 10 -6 15 -3 13 9 11 12 -6 12 -8 0 -12 -4 -9 -9z"/>
<path d="M4308 1383 c7 -3 16 -2 19 1 4 3 -2 6 -13 5 -11 0 -14 -3 -6 -6z"/>
<path d="M2680 1376 c0 -2 7 -7 16 -10 8 -3 12 -2 9 4 -6 10 -25 14 -25 6z"/>
<path d="M2735 1371 c-3 -5 0 -13 6 -17 7 -4 9 -3 5 4 -3 5 0 13 6 15 9 4 10
6 1 6 -6 1 -14 -3 -18 -8z"/>
<path d="M4182 1359 c-7 -12 -11 -24 -7 -27 10 -10 35 -11 29 -1 -3 5 -10 7
-15 4 -13 -9 -11 9 3 23 17 17 29 15 22 -3 -6 -15 7 -21 19 -8 9 8 -12 33 -27
33 -6 0 -17 -9 -24 -21z"/>
<path d="M4270 1370 c0 -5 5 -10 10 -10 6 0 10 5 10 10 0 6 -4 10 -10 10 -5 0
-10 -4 -10 -10z"/>
<path d="M2971 1356 c-14 -16 -6 -23 28 -22 15 1 25 8 27 19 2 13 -1 15 -10 8
-8 -7 -16 -7 -23 0 -7 7 -14 5 -22 -5z m23 -4 c3 -5 -1 -9 -9 -9 -8 0 -12 4
-9 9 3 4 7 8 9 8 2 0 6 -4 9 -8z"/>
<path d="M4495 1359 c-4 -6 -5 -12 -2 -15 2 -3 7 2 10 11 7 17 1 20 -8 4z"/>
<path d="M4445 1349 c-3 -4 2 -6 10 -5 21 3 28 13 10 13 -9 0 -18 -4 -20 -8z"/>
<path d="M4536 1348 c3 -5 10 -6 15 -3 13 9 11 12 -6 12 -8 0 -12 -4 -9 -9z"/>
<path d="M2866 1335 c-11 -8 -15 -15 -9 -15 6 0 16 7 23 15 16 19 11 19 -14 0z"/>
<path d="M4308 1343 c7 -3 16 -2 19 1 4 3 -2 6 -13 5 -11 0 -14 -3 -6 -6z"/>
<path d="M2730 1336 c0 -2 7 -7 16 -10 8 -3 12 -2 9 4 -6 10 -25 14 -25 6z"/>
<path d="M2795 1330 c3 -5 8 -10 11 -10 2 0 4 5 4 10 0 6 -5 10 -11 10 -5 0
-7 -4 -4 -10z"/>
<path d="M4104 1325 c11 -8 24 -15 30 -15 5 0 1 7 -10 15 -10 8 -23 14 -29 14
-5 0 -1 -6 9 -14z"/>
<path d="M4153 1322 c2 -12 6 -24 10 -28 3 -4 4 4 2 16 -6 30 -16 40 -12 12z"/>
<path d="M4232 1331 c-11 -7 -11 -9 0 -14 9 -3 15 1 15 9 0 8 -1 14 -1 14 -1
0 -7 -4 -14 -9z"/>
<path d="M4356 1331 c-3 -5 2 -15 12 -22 15 -12 16 -12 5 2 -7 9 -10 19 -6 22
3 4 4 7 0 7 -3 0 -8 -4 -11 -9z"/>
<path d="M4390 1325 c5 -7 6 -16 2 -21 -4 -5 -3 -5 2 -1 15 12 15 34 0 34 -9
0 -11 -4 -4 -12z"/>
<path d="M4420 1336 c0 -2 8 -10 18 -17 15 -13 16 -12 3 4 -13 16 -21 21 -21
13z"/>
<path d="M4257 1311 c-4 -17 -3 -21 5 -13 5 5 8 16 6 23 -3 8 -7 3 -11 -10z"/>
<path d="M4515 1319 c-4 -6 -5 -12 -2 -15 2 -3 7 2 10 11 7 17 1 20 -8 4z"/>
<path d="M2933 1301 c0 -11 5 -18 9 -15 4 3 5 11 1 19 -7 21 -12 19 -10 -4z"/>
<path d="M2965 1310 c-2 -3 6 -6 18 -5 12 1 28 -2 35 -8 9 -7 11 -6 7 5 -6 16
-52 22 -60 8z"/>
<path d="M4075 1310 c-3 -6 -1 -18 5 -27 9 -16 10 -15 5 4 -5 18 -3 22 9 17 9
-3 16 -4 16 -1 0 10 -30 16 -35 7z"/>
<path d="M4188 1303 c7 -3 16 -2 19 1 4 3 -2 6 -13 5 -11 0 -14 -3 -6 -6z"/>
<path d="M3953 1281 c0 -11 5 -18 9 -15 4 3 5 11 1 19 -7 21 -12 19 -10 -4z"/>
<path d="M4134 1292 c3 -5 0 -13 -6 -15 -9 -4 -10 -6 -1 -6 17 -1 25 16 12 25
-7 4 -9 3 -5 -4z"/>
<path d="M4229 1284 c7 -15 7 -25 -2 -35 -7 -7 -1 -5 12 6 13 11 25 18 26 15
2 -3 6 -2 10 2 4 3 -1 5 -12 4 -10 -2 -24 4 -31 13 -11 14 -12 13 -3 -5z"/>
<path d="M4319 1283 c-13 -16 -12 -17 4 -4 16 13 21 21 13 21 -2 0 -10 -8 -17
-17z"/>
<path d="M3920 1283 c5 -2 10 -11 10 -18 0 -8 4 -17 10 -20 6 -4 7 2 1 16 -4
13 -13 24 -20 25 -6 1 -7 0 -1 -3z"/>
<path d="M4553 1275 c0 -8 4 -12 9 -9 5 3 6 10 3 15 -9 13 -12 11 -12 -6z"/>
<path d="M3056 1268 c3 -5 10 -6 15 -3 13 9 11 12 -6 12 -8 0 -12 -4 -9 -9z"/>
<path d="M3754 1269 c-3 -6 -1 -16 5 -22 9 -9 11 -8 5 6 -5 13 -2 16 10 11 9
-3 16 -4 16 -1 0 11 -30 16 -36 6z"/>
<path d="M3832 1275 c4 -4 0 -14 -10 -21 -15 -12 -15 -12 6 -7 24 6 29 18 10
29 -7 4 -10 4 -6 -1z"/>
<path d="M4020 1270 c-9 -6 -10 -10 -3 -10 6 0 15 5 18 10 8 12 4 12 -15 0z"/>
<path d="M4154 1269 c-4 -7 -3 -9 4 -5 5 3 13 0 15 -6 4 -9 6 -10 6 -1 1 17
-16 25 -25 12z"/>
<path d="M4457 1265 c-4 -8 -3 -16 1 -19 4 -3 9 4 9 15 2 23 -3 25 -10 4z"/>
<path d="M3990 1261 c0 -6 4 -13 10 -16 6 -3 7 1 4 9 -7 18 -14 21 -14 7z"/>
<path d="M3135 1250 c-2 -3 5 -6 15 -7 11 -1 22 2 24 5 3 4 -4 8 -15 8 -11 0
-22 -3 -24 -6z"/>
<path d="M3315 1251 c-3 -5 -2 -12 3 -15 5 -3 9 1 9 9 0 17 -3 19 -12 6z"/>
<path d="M3386 1252 c-3 -5 1 -9 9 -9 8 0 12 4 9 9 -3 4 -7 8 -9 8 -2 0 -6 -4
-9 -8z"/>
<path d="M3430 1250 c-8 -5 -10 -10 -5 -10 6 0 17 5 25 10 8 5 11 10 5 10 -5
0 -17 -5 -25 -10z"/>
<path d="M3910 1255 c0 -5 5 -17 10 -25 5 -8 10 -10 10 -5 0 6 -5 17 -10 25
-5 8 -10 11 -10 5z"/>
<path d="M3475 1240 c3 -5 8 -10 11 -10 2 0 4 5 4 10 0 6 -5 10 -11 10 -5 0
-7 -4 -4 -10z"/>
<path d="M3786 1233 c-6 -14 -5 -15 5 -6 7 7 10 15 7 18 -3 3 -9 -2 -12 -12z"/>
<path d="M3340 1236 c0 -2 8 -10 18 -17 15 -13 16 -12 3 4 -13 16 -21 21 -21
13z"/>
<path d="M3453 1221 c0 -11 5 -18 9 -15 4 3 5 11 1 19 -7 21 -12 19 -10 -4z"/>
<path d="M3559 1238 c-5 -18 -6 -38 -1 -34 7 8 12 36 6 36 -2 0 -4 -1 -5 -2z"/>
<path d="M3596 1231 c9 -9 34 -9 34 -1 0 5 -9 8 -20 7 -10 -1 -17 -3 -14 -6z"/>
<path d="M3666 1232 c-3 -5 1 -9 9 -9 8 0 15 4 15 9 0 4 -4 8 -9 8 -6 0 -12
-4 -15 -8z"/>
<path d="M3730 1232 c0 -4 10 -9 22 -9 18 -2 20 0 8 7 -18 12 -30 13 -30 2z"/>
<path d="M3850 1232 c0 -4 10 -9 22 -9 18 -2 20 0 8 7 -18 12 -30 13 -30 2z"/>
<path d="M3964 1233 c4 -4 16 -8 28 -10 28 -4 18 6 -12 12 -12 2 -20 1 -16 -2z"/>
<path d="M4666 1228 c3 -5 10 -6 15 -3 13 9 11 12 -6 12 -8 0 -12 -4 -9 -9z"/>
<path d="M4100 1215 c0 -2 6 -8 13 -14 10 -8 14 -7 14 2 0 8 -6 14 -14 14 -7
0 -13 -1 -13 -2z"/>
<path d="M4354 1212 c4 -3 14 -7 22 -8 9 -1 13 0 10 4 -4 3 -14 7 -22 8 -9 1
-13 0 -10 -4z"/>
<path d="M3736 1197 c3 -10 9 -15 12 -12 3 3 0 11 -7 18 -10 9 -11 8 -5 -6z"/>
<path d="M3769 1193 c-13 -16 -12 -17 4 -4 9 7 17 15 17 17 0 8 -8 3 -21 -13z"/>
<path d="M3895 1201 c-3 -5 -2 -12 3 -15 5 -3 9 1 9 9 0 17 -3 19 -12 6z"/>
<path d="M3973 1195 c0 -8 4 -12 9 -9 5 3 6 10 3 15 -9 13 -12 11 -12 -6z"/>
<path d="M4061 1186 c-9 -11 -9 -16 1 -22 7 -4 10 -4 6 1 -4 4 -3 14 3 22 6 7
9 13 6 13 -2 0 -10 -6 -16 -14z"/>
<path d="M3935 1181 c-3 -5 -2 -12 3 -15 5 -3 9 1 9 9 0 17 -3 19 -12 6z"/>
<path d="M3836 1168 c3 -4 11 -5 19 -1 21 7 19 12 -4 10 -11 0 -18 -5 -15 -9z"/>
<path d="M4015 1170 c3 -5 8 -10 11 -10 2 0 4 5 4 10 0 6 -5 10 -11 10 -5 0
-7 -4 -4 -10z"/>
<path d="M4135 1170 c3 -5 8 -10 11 -10 2 0 4 5 4 10 0 6 -5 10 -11 10 -5 0
-7 -4 -4 -10z"/>
<path d="M4214 1172 c4 -3 14 -7 22 -8 9 -1 13 0 10 4 -4 3 -14 7 -22 8 -9 1
-13 0 -10 -4z"/>
<path d="M4275 1171 c-3 -5 -2 -12 3 -15 5 -3 9 1 9 9 0 17 -3 19 -12 6z"/>
<path d="M3636 1157 c3 -10 9 -15 12 -12 3 3 0 11 -7 18 -10 9 -11 8 -5 -6z"/>
</g>
</svg>
